#!OML:ASF F:\VICON\USERDATA\INSTALL\rory3\rory3.ASF
:FULLY-SPECIFIED
:DEGREES
4749
root -5.74642 17.7437 15.0565 -1511.08 -81.131 430.209
lowerback 11.1859 0.777717 -7.31833
upperback 0.947519 0.00140805 -1.00747
thorax -5.29304 0.128048 3.06671
lowerneck -19.2292 -4.23958 -9.56028
upperneck 25.0028 -5.69243 8.45413
head 11.9225 -2.51634 3.85103
rclavicle -2.5345e-015 -3.61788e-014
rhumerus -38.7462 -10.0686 -80.8955
rradius 30.7966
rwrist 6.32763
rhand -16.0138 8.11704
rfingers 7.12502
rthumb 10.1868 -21.6163
lclavicle -2.5345e-015 -3.61788e-014
lhumerus -24.141 -4.36807 78.8041
lradius 31.5061
lwrist -4.04082
lhand -17.1081 25.9433
lfingers 7.12502
lthumb 9.13108 55.7256
rfemur -28.2293 -14.518 18.4574
rtibia 37.5366
rfoot -13.0989 -12.003
rtoes 22.5551
lfemur 3.49066 5.00405 -28.9185
ltibia 10.4194
lfoot -9.08148 -2.70795
ltoes -16.2604
4750
root -5.81917 17.7442 15.0811 -1514.23 -81.4528 433.212
lowerback 11.3715 0.760317 -6.96297
upperback 0.987308 0.00511855 -1.03984
thorax -5.35449 0.121911 2.8326
lowerneck -19.2219 -4.20172 -9.35237
upperneck 25.0256 -5.66251 8.28989
head 11.914 -2.50456 3.75784
rclavicle 9.79014e-015 3.18055e-014
rhumerus -38.69 -9.95832 -81.0774
rradius 30.5112
rwrist 6.27081
rhand -16.3471 8.48327
rfingers 7.12502
rthumb 9.86525 -21.2656
lclavicle 9.79014e-015 3.18055e-014
lhumerus -23.789 -3.8613 78.2665
lradius 31.5434
lwrist -5.6697
lhand -14.2054 25.1181
lfingers 7.12502
lthumb 11.931 54.7582
rfemur -28.2119 -15.301 19.1438
rtibia 35.923
rfoot -11.5894 -12.0525
rtoes 22.497
lfemur 3.99541 5.01279 -28.839
ltibia 10.3126
lfoot -9.18387 -2.09048
ltoes -16.7538
4751
root -5.87792 17.7474 15.0908 -1516.11 -81.8702 435.219
lowerback 11.4711 0.721533 -6.59836
upperback 0.907854 -0.00424276 -0.967985
thorax -5.49266 0.117343 2.7047
lowerneck -19.3012 -4.24059 -9.36427
upperneck 25.1878 -5.72044 8.27271
head 11.999 -2.5348 3.74689
rclavicle 4.72114e-015 -1.43125e-014
rhumerus -38.6766 -9.88191 -81.1588
rradius 30.2945
rwrist 6.17731
rhand -16.4263 8.6461
rfingers 7.12502
rthumb 9.78887 -21.1064
lclavicle 4.72114e-015 -1.43125e-014
lhumerus -23.5431 -3.80675 77.9936
lradius 31.6269
lwrist -6.03367
lhand -14.0791 24.1875
lfingers 7.12502
lthumb 12.0529 53.8204
rfemur -28.5365 -16.0959 20.2254
rtibia 34.4797
rfoot -9.9816 -12.4931
rtoes 20.6613
lfemur 4.37403 5.02675 -28.4668
ltibia 9.76745
lfoot -8.95607 -1.9232
ltoes -15.6387
4752
root -5.95203 17.7461 15.1066 -1520.68 -81.9593 439.8
lowerback 11.5153 0.753215 -6.66606
upperback 0.879304 0.0277152 -0.915254
thorax -5.55088 0.137907 2.79313
lowerneck -19.3613 -4.25968 -9.54029
upperneck 25.3316 -5.70483 8.28741
head 12.0719 -2.54433 3.78829
rclavicle 1.54058e-015 2.0276e-014
rhumerus -38.6852 -9.59527 -81.1924
rradius 30.2023
rwrist 5.9224
rhand -16.2271 8.45904
rfingers 7.12502
rthumb 9.98107 -21.2843
lclavicle 1.54058e-015 2.0276e-014
lhumerus -23.4435 -3.78975 77.9366
lradius 31.7207
lwrist -5.44551
lhand -16.0666 24.3858
lfingers 7.12502
lthumb 10.1359 54.1216
rfemur -28.6141 -16.1919 20.5632
rtibia 33.1622
rfoot -8.94509 -12.8929
rtoes 21.8577
lfemur 5.00969 5.32524 -28.5562
ltibia 9.09127
lfoot -8.75865 -1.72419
ltoes -14.6586
4753
root -6.03076 17.7473 15.1219 -1525.65 -81.8859 444.803
lowerback 11.4146 0.789725 -6.77245
upperback 0.910558 0.069453 -0.939131
thorax -5.46582 0.156662 2.8212
lowerneck -19.4438 -4.23448 -9.52788
upperneck 25.3817 -5.62248 8.13417
head 12.0935 -2.52397 3.74165
rclavicle 3.8266e-015 2.98177e-014
rhumerus -38.5797 -9.61059 -81.1954
rradius 30.0947
rwrist 5.91609
rhand -15.9158 8.33028
rfingers 7.12502
rthumb 10.2814 -21.3984
lclavicle 3.8266e-015 2.98177e-014
lhumerus -23.2794 -3.85831 77.8874
lradius 31.9062
lwrist -4.54987
lhand -18.1731 25.2944
lfingers 7.12502
lthumb 8.10329 55.119
rfemur -28.6361 -15.6384 20.5371
rtibia 31.99
rfoot -8.36662 -13.7804
rtoes 24.6888
lfemur 5.73042 5.6632 -28.8175
ltibia 8.20539
lfoot -8.48436 -1.51096
ltoes -14.392
4754
root -6.10573 17.7579 15.1335 -1530.64 -81.9487 449.892
lowerback 11.2307 0.838268 -6.56832
upperback 0.939505 0.172011 -1.00546
thorax -5.34128 0.196896 2.62071
lowerneck -19.5099 -4.26844 -9.47829
upperneck 25.4406 -5.67132 8.07705
head 12.1316 -2.54775 3.70379
rclavicle -3.8763e-015 -3.97569e-015
rhumerus -38.4994 -9.82874 -81.2299
rradius 30.0319
rwrist 6.22706
rhand -15.747 8.3293
rfingers 7.12502
rthumb 10.4442 -21.3913
lclavicle -3.8763e-015 -3.97569e-015
lhumerus -23.1652 -4.21344 77.7309
lradius 32.2696
lwrist -3.77205
lhand -18.9871 25.9745
lfingers 7.12502
lthumb 7.3176 55.828
rfemur -28.8148 -15.1011 20.84
rtibia 31.0604
rfoot -7.80795 -15.1154
rtoes 25.996
lfemur 6.67352 6.01736 -28.8539
ltibia 6.71196
lfoot -7.88952 -1.3083
ltoes -14.2508
4755
root -6.18046 17.7682 15.1443 -1535.52 -81.7899 454.948
lowerback 11.0389 0.876074 -6.53647
upperback 0.888425 0.232583 -1.12487
thorax -5.29322 0.224178 2.468
lowerneck -19.5444 -4.31857 -9.55374
upperneck 25.5471 -5.79691 8.29282
head 12.204 -2.58677 3.7809
rclavicle 4.91992e-015 1.82882e-014
rhumerus -38.478 -9.7471 -81.4022
rradius 29.9185
rwrist 6.51039
rhand -15.917 8.3659
rfingers 7.12502
rthumb 10.2802 -21.3629
lclavicle 4.91992e-015 1.82882e-014
lhumerus -23.2405 -4.48844 77.4773
lradius 32.6605
lwrist -3.38092
lhand -19.0119 26.1562
lfingers 7.12502
lthumb 7.29368 56.0105
rfemur -29.2303 -14.9341 21.1379
rtibia 30.4017
rfoot -7.21696 -16.5172
rtoes 25.8478
lfemur 7.98491 6.36554 -29.0578
ltibia 4.29425
lfoot -6.89605 -1.24811
ltoes -14.8955
